<svg xmlns="http://www.w3.org/2000/svg" viewBox="0 0 1440 1900" preserveAspectRatio="xMidYMid slice">
  <path d="M61.4 118.8L4 474.2M106.8 126.2L49.4 481.6M152.2 133.5L94.8 488.9M197.6 140.8L140.2 496.2M243 148.2L185.7 503.6M288.4 155.5L231.1 510.9M333.8 162.8L276.5 518.2M379.2 170.1L321.9 525.5M424.7 177.5L367.3 532.9M470.1 184.8L412.7 540.2M61.4 118.8L476 185.8M54 164.3L468.7 231.2M46.7 209.7L461.3 276.6M39.4 255.1L454 322M32 300.5L446.7 367.4M24.7 345.9L439.4 412.8M17.4 391.3L432 458.2M10.1 436.7L424.7 503.6M941.1 301.1L1051.7 716.6M989.4 288.2L1100 703.8M1037.8 275.4L1148.3 690.9M1086.1 262.5L1196.6 678.1M1134.4 249.7L1244.9 665.2M1182.7 236.8L1293.3 652.3M1231 223.9L1341.6 639.5M1279.4 211.1L1389.9 626.6M941.1 301.1L1308.3 203.4M954 349.4L1321.2 251.7M966.8 397.7L1334 300M979.7 446L1346.9 348.3M992.5 494.3L1359.8 396.7M1005.4 542.7L1372.6 445M1018.2 591L1385.5 493.3M1031.1 639.3L1398.3 541.6M1043.9 687.6L1411.2 589.9M982.4 1278.4L931 1705.3M1030.1 1284.2L978.6 1711.1M1077.7 1289.9L1026.3 1716.8M1125.4 1295.7L1073.9 1722.6M1173 1301.4L1121.6 1728.3M1220.7 1307.1L1169.2 1734.1M1268.4 1312.9L1216.9 1739.8M1316 1318.6L1264.5 1745.5M1363.7 1324.4L1312.2 1751.3M1411.3 1330.1L1359.8 1757M982.4 1278.4L1449 1334.7M976.7 1326.1L1443.3 1382.3M970.9 1373.7L1437.6 1430M965.2 1421.4L1431.8 1477.6M959.4 1469L1426.1 1525.3M953.7 1516.7L1420.3 1573M948 1564.3L1414.6 1620.6M942.2 1612L1408.8 1668.3M936.5 1659.7L1403.1 1715.9M76.4 1277.3L160.5 1739.7M127.6 1268L211.7 1730.4M178.7 1258.7L262.9 1721.1M229.9 1249.4L314 1711.8M281 1240L365.2 1702.5M332.2 1230.7L416.3 1693.1M383.4 1221.4L467.5 1683.8M434.5 1212.1L518.7 1674.5M485.7 1202.8L569.8 1665.2M76.4 1277.3L499.5 1200.3M85.7 1328.4L508.8 1251.5M95 1379.6L518.1 1302.6M104.3 1430.8L527.4 1353.8M113.6 1481.9L536.7 1404.9M122.9 1533.1L546 1456.1M132.3 1584.2L555.3 1507.3M141.6 1635.4L564.6 1558.4M150.9 1686.6L573.9 1609.6M160.2 1737.7L583.2 1660.7M627.2 832.7L613.2 1112.3M671.1 834.9L657.1 1114.5M715.1 837.1L701.1 1116.7M759 839.3L745 1118.9M803 841.5L789 1121.1M846.9 843.7L832.9 1123.3M890.9 845.9L876.9 1125.5M627.2 832.7L926.8 847.7M625 876.6L924.6 891.6M622.8 920.6L922.4 935.6M620.6 964.5L920.2 979.5M618.4 1008.5L918 1023.5M616.2 1052.4L915.8 1067.4M614 1096.3L913.6 1111.3" fill="none" stroke="#C28A12" stroke-width="1" stroke-opacity="0.8" stroke-linecap="round"></path>
  <path d="M-40 560L-5.3 563.3L29.5 566.6L64.2 569.9L98.9 573L133.6 576L168.3 578.8L203 581.5L237.7 583.9L272.4 586L307.1 587.9L341.8 589.5L376.4 590.7L411 591.6L445.7 592.1L480.3 592.3L514.9 592L549.4 591.4L584 590.4L618.5 589L653.1 587.1L687.6 584.9L722.1 582.3L756.5 579.3L791 575.9L825.5 572.1L859.9 568.1L894.3 563.7L928.7 559L963.1 554L997.5 548.8L1031.9 543.4L1066.3 537.8L1100.7 532L1135 526.1L1169.4 520.1L1203.8 514L1238.1 508L1272.5 501.9L1306.8 495.9L1341.2 490L1375.6 484.2L1410 478.5L1444.3 473L1478.7 467.7M-40 1010L-5.8 1018.1L28.4 1026.1L62.7 1034.1L96.9 1042L131.1 1049.7L165.4 1057.2L199.6 1064.5L233.9 1071.5L268.2 1078.2L302.5 1084.7L336.8 1090.7L371.1 1096.5L405.5 1101.8L439.9 1106.6L474.3 1111.1L508.7 1115.1L543.2 1118.6L577.7 1121.6L612.2 1124.2L646.7 1126.3L681.3 1127.8L715.8 1128.9L750.5 1129.5L785.1 1129.6L819.8 1129.3L854.4 1128.5L889.1 1127.2L923.9 1125.5L958.6 1123.5L993.4 1121L1028.2 1118.2L1063 1115.1L1097.8 1111.7L1132.6 1108.1L1167.5 1104.2L1202.3 1100.1L1237.2 1095.9L1272.1 1091.6L1306.9 1087.2L1341.8 1082.7L1376.7 1078.3L1411.6 1073.9L1446.4 1069.5L1481.3 1065.3M-40 1470L-5.3 1472.9L29.4 1475.8L64.1 1478.7L98.8 1481.4L133.6 1484.1L168.3 1486.7L203 1489.2L237.6 1491.5L272.3 1493.7L307 1495.6L341.7 1497.4L376.3 1498.9L411 1500.3L445.6 1501.3L480.3 1502.2L514.9 1502.7L549.5 1503L584.1 1503L618.7 1502.7L653.3 1502.1L687.8 1501.2L722.4 1500L756.9 1498.4L791.4 1496.6L825.9 1494.5L860.5 1492.1L894.9 1489.4L929.4 1486.4L963.9 1483.1L998.4 1479.5L1032.8 1475.7L1067.2 1471.7L1101.7 1467.4L1136.1 1462.9L1170.5 1458.2L1204.9 1453.3L1239.3 1448.3L1273.7 1443.1L1308.1 1437.8L1342.5 1432.3L1376.9 1426.8L1411.2 1421.3L1445.6 1415.6L1480 1410" fill="none" stroke="#C28A12" stroke-width="2.2" stroke-opacity="0.95" stroke-linecap="round"></path>
  <path d="M110 470L360 650L470 930L770 1040L1010 1240L1190 1520L1330 1700" fill="none" stroke="#C28A12" stroke-width="2.6" stroke-dasharray="5 9" stroke-linecap="round"></path>
  <circle cx="110" cy="470" r="5.5" fill="#C28A12"></circle>
  <circle cx="360" cy="650" r="5.5" fill="#C28A12"></circle>
  <circle cx="470" cy="930" r="5.5" fill="#C28A12"></circle>
  <circle cx="770" cy="1040" r="5.5" fill="#C28A12"></circle>
  <circle cx="1010" cy="1240" r="5.5" fill="#C28A12"></circle>
  <circle cx="1190" cy="1520" r="5.5" fill="#C28A12"></circle>
  <circle cx="1330" cy="1700" r="5.5" fill="#C28A12"></circle>
</svg>